<svg xmlns="http://www.w3.org/2000/svg" viewBox="0 0 540.1 138.23"><defs><style>.cls-1{fill:#f1fafe;}</style></defs><title>logoAsset 5</title><g id="Layer_2" data-name="Layer 2"><g id="Layer_1-2" data-name="Layer 1"><path class="cls-1" d="M8.21,1.36H49.87q13.62,0,20.4,6.14T77,25q0,11.64-7.38,18.2T47.11,49.71H33.38V78.24H8.21ZM33.38,34.14h6.15q7.24,0,10.18-2.39a7.53,7.53,0,0,0,2.93-6.11,8.32,8.32,0,0,0-2.54-6.13Q47.55,17,40.52,17H33.38Z"/><path class="cls-1" d="M91.16,1.36h25.12V78.24H91.16Z"/><path class="cls-1" d="M128.73,1.36h27.61L170.7,25l14-23.65H212L186.76,38.6l27.63,39.64H186.22l-16-24.7-16,24.7h-28l28-40.06Z"/><path class="cls-1" d="M243.5,78.24V10.44H216.77V1.36h64.3v9.08H254.23v67.8Z"/><path class="cls-1" d="M286.77,40.8q0-19.14,10.84-30T325.61,0a40.56,40.56,0,0,1,20.26,5.09,34,34,0,0,1,13.75,14.18,44.15,44.15,0,0,1,4.73,20.64,43.35,43.35,0,0,1-5,20.92,33.1,33.1,0,0,1-14.11,14,42.15,42.15,0,0,1-19.7,4.74,40,40,0,0,1-20.47-5.24A34.46,34.46,0,0,1,291.42,60,41.49,41.49,0,0,1,286.77,40.8Zm11.07.16q0,13.89,7.88,21.89a26.64,26.64,0,0,0,19.78,8q12.12,0,19.95-8.08t7.83-22.92a37.6,37.6,0,0,0-3.34-16.38,24.84,24.84,0,0,0-9.8-10.86,27.65,27.65,0,0,0-14.47-3.85,28.27,28.27,0,0,0-19.62,7.42Q297.84,23.6,297.84,41Z"/><path class="cls-1" d="M374.92,40.8q0-19.14,10.85-30T413.77,0A40.55,40.55,0,0,1,434,5.09a34,34,0,0,1,13.75,14.18,44.15,44.15,0,0,1,4.73,20.64,43.35,43.35,0,0,1-5,20.92,33.1,33.1,0,0,1-14.11,14,42.13,42.13,0,0,1-19.7,4.74,40,40,0,0,1-20.47-5.24A34.46,34.46,0,0,1,379.57,60,41.49,41.49,0,0,1,374.92,40.8ZM386,41q0,13.89,7.88,21.89a26.64,26.64,0,0,0,19.78,8q12.12,0,20-8.08t7.83-22.92a37.6,37.6,0,0,0-3.34-16.38,24.84,24.84,0,0,0-9.8-10.86,27.65,27.65,0,0,0-14.47-3.85,28.27,28.27,0,0,0-19.62,7.42Q386,23.6,386,41Z"/><path class="cls-1" d="M466.5,78.24V1.36h36q10.84,0,16.49,2.08a17.78,17.78,0,0,1,9,7.31,21,21,0,0,1,3.37,11.59,18.8,18.8,0,0,1-5.58,13.79q-5.6,5.61-17.27,7.13A28.44,28.44,0,0,1,515,47.09a54.18,54.18,0,0,1,8.91,10.23L538,78.24H524.49l-10.73-16q-4.71-6.93-7.75-10.6a23.91,23.91,0,0,0-5.45-5.14,16.64,16.64,0,0,0-4.9-2,34.31,34.31,0,0,0-6-.37H477.24V78.24Zm10.74-42.95h23.07a36.39,36.39,0,0,0,11.51-1.44,12.19,12.19,0,0,0,6.31-4.61,12,12,0,0,0,2.16-6.9,11.18,11.18,0,0,0-4.18-9c-2.79-2.34-7.18-3.51-13.2-3.51H477.24Z"/><path class="cls-1" d="M0,101.33H7.22l2.6,16,3.8-16h7.19l3.81,15.94,2.6-15.94H34.4L29,129.85H21.53l-4.31-18-4.3,18H5.47Z"/><path class="cls-1" d="M37.57,101.33H44.4v10.51a9.4,9.4,0,0,1,2.77-2.4,6.93,6.93,0,0,1,3.25-.72,5.36,5.36,0,0,1,4.39,2q1.61,2,1.6,6v13.13H49.55V118.49a4.62,4.62,0,0,0-.62-2.75,2.06,2.06,0,0,0-1.74-.81,2.37,2.37,0,0,0-2,1.09,7.17,7.17,0,0,0-.77,3.91v9.92H37.57Z"/><path class="cls-1" d="M80.27,121.48H66.58a5.56,5.56,0,0,0,.89,2.84,3.06,3.06,0,0,0,2.58,1.35,3.46,3.46,0,0,0,1.91-.59,4.67,4.67,0,0,0,1.19-1.3l6.73.72A10.56,10.56,0,0,1,76.16,129a11.87,11.87,0,0,1-6.26,1.36,11.29,11.29,0,0,1-5.57-1.16A8.77,8.77,0,0,1,61,125.48a12.46,12.46,0,0,1-1.34-5.92,11.3,11.3,0,0,1,2.68-7.84,9.38,9.38,0,0,1,7.39-3,11.58,11.58,0,0,1,6,1.35A8.53,8.53,0,0,1,79.11,114a16.19,16.19,0,0,1,1.16,6.63Zm-7-3.79a5.81,5.81,0,0,0-1.06-3.29,2.89,2.89,0,0,0-2.28-1,3,3,0,0,0-2.6,1.5,6.22,6.22,0,0,0-.79,2.78Z"/><path class="cls-1" d="M83.47,109.19h6.39v3.38a8.21,8.21,0,0,1,1.9-3,3.67,3.67,0,0,1,2.43-.83,6.52,6.52,0,0,1,3.3,1.09l-2.11,5.64a4.76,4.76,0,0,0-1.91-.58,2.29,2.29,0,0,0-2.08,1.28q-1.06,1.81-1.06,6.77v6.93H83.47Z"/><path class="cls-1" d="M119,121.48H105.29a5.66,5.66,0,0,0,.89,2.84,3.06,3.06,0,0,0,2.58,1.35,3.49,3.49,0,0,0,1.92-.59,4.83,4.83,0,0,0,1.19-1.3l6.72.72a10.49,10.49,0,0,1-3.72,4.46,11.85,11.85,0,0,1-6.26,1.36,11.32,11.32,0,0,1-5.57-1.16,8.84,8.84,0,0,1-3.36-3.68,12.46,12.46,0,0,1-1.33-5.92,11.35,11.35,0,0,1,2.67-7.84,9.41,9.41,0,0,1,7.39-3,11.55,11.55,0,0,1,6,1.35,8.47,8.47,0,0,1,3.37,3.89,16.19,16.19,0,0,1,1.16,6.63ZM112,117.69A5.81,5.81,0,0,0,111,114.4a2.87,2.87,0,0,0-2.27-1,3,3,0,0,0-2.6,1.5,6,6,0,0,0-.79,2.78Z"/><path class="cls-1" d="M150.4,118.18l6.66,2.33a15.26,15.26,0,0,1-2.12,5.43,9.53,9.53,0,0,1-3.58,3.29,11.75,11.75,0,0,1-5.44,1.11,13.79,13.79,0,0,1-6.55-1.36,11.17,11.17,0,0,1-4.39-4.75,18.17,18.17,0,0,1-1.84-8.71q0-7.08,3.24-10.87t9.19-3.81a11.19,11.19,0,0,1,7.3,2.18,13,13,0,0,1,3.95,6.69l-6.71,1.74a7.32,7.32,0,0,0-.73-1.91,4.84,4.84,0,0,0-1.56-1.56,4,4,0,0,0-2.07-.54,4.33,4.33,0,0,0-4,2.41,11.6,11.6,0,0,0-1,5.61c0,3.16.42,5.33,1.24,6.5a4,4,0,0,0,3.49,1.76,3.92,3.92,0,0,0,3.3-1.42A9.58,9.58,0,0,0,150.4,118.18Z"/><path class="cls-1" d="M160.36,109.19h6.39v3.38a8.08,8.08,0,0,1,1.91-3,3.63,3.63,0,0,1,2.42-.83,6.55,6.55,0,0,1,3.31,1.09l-2.12,5.64a4.72,4.72,0,0,0-1.91-.58,2.3,2.3,0,0,0-2.08,1.28c-.7,1.21-1.06,3.47-1.06,6.77v6.93h-6.86Z"/><path class="cls-1" d="M195.87,121.48H182.19a5.56,5.56,0,0,0,.89,2.84,3,3,0,0,0,2.58,1.35,3.46,3.46,0,0,0,1.91-.59,4.67,4.67,0,0,0,1.19-1.3l6.73.72a10.51,10.51,0,0,1-3.73,4.46,11.83,11.83,0,0,1-6.25,1.36,11.29,11.29,0,0,1-5.57-1.16,8.71,8.71,0,0,1-3.36-3.68,12.46,12.46,0,0,1-1.34-5.92,11.3,11.3,0,0,1,2.68-7.84,9.38,9.38,0,0,1,7.39-3,11.51,11.51,0,0,1,6,1.35,8.55,8.55,0,0,1,3.38,3.89,16.2,16.2,0,0,1,1.15,6.63Zm-6.94-3.79a5.81,5.81,0,0,0-1.07-3.29,2.86,2.86,0,0,0-2.27-1,3,3,0,0,0-2.6,1.5,6.1,6.1,0,0,0-.79,2.78Z"/><path class="cls-1" d="M205.23,115.88l-6.52-.8a9.52,9.52,0,0,1,1.06-3.12,6.21,6.21,0,0,1,2-2,7.6,7.6,0,0,1,2.58-.94,18.1,18.1,0,0,1,3.56-.33,24.9,24.9,0,0,1,4.93.4,6,6,0,0,1,3.1,1.67,6,6,0,0,1,1.38,2.48,10.4,10.4,0,0,1,.5,3.06v9.12a12.36,12.36,0,0,0,.16,2.29,11.63,11.63,0,0,0,.7,2.11h-6.41a7,7,0,0,1-.5-1.22,9.94,9.94,0,0,1-.24-1.31,8.81,8.81,0,0,1-2.67,2.14,9.74,9.74,0,0,1-4.21.86,6.41,6.41,0,0,1-4.84-1.72,5.83,5.83,0,0,1-1.65-4.22,6.1,6.1,0,0,1,1.19-3.87,7.64,7.64,0,0,1,4.4-2.25q3.84-.9,5-1.26a20.94,20.94,0,0,0,2.42-.94,3.14,3.14,0,0,0-.52-2,2.41,2.41,0,0,0-1.83-.58,4.25,4.25,0,0,0-2.52.62A3.5,3.5,0,0,0,205.23,115.88Zm5.93,4.16a29.08,29.08,0,0,1-2.94,1,6.29,6.29,0,0,0-2.63,1.26,2.26,2.26,0,0,0,0,3,2.17,2.17,0,0,0,1.65.59,3.77,3.77,0,0,0,2.12-.64,3.58,3.58,0,0,0,1.39-1.57,5.8,5.8,0,0,0,.42-2.4Z"/><path class="cls-1" d="M229.57,101.33v7.86h3.76V115h-3.76v7.32a4.54,4.54,0,0,0,.22,1.74,1.22,1.22,0,0,0,1.18.66,6.5,6.5,0,0,0,2.11-.5l.5,5.46a19.22,19.22,0,0,1-4.73.65,7.26,7.26,0,0,1-3.75-.76,4.42,4.42,0,0,1-1.79-2.3,15.44,15.44,0,0,1-.58-5V115h-2.52v-5.8h2.52V105.4Z"/><path class="cls-1" d="M236.84,101.33h6.82v5.39h-6.82Zm0,7.86h6.82v20.66h-6.82Z"/><path class="cls-1" d="M246,109.19h7.11l3.45,13.09,3.59-13.09h6.89l-7.57,20.66h-6.06Z"/><path class="cls-1" d="M269.26,101.33h6.83v5.39h-6.83Zm0,7.86h6.83v20.66h-6.83Z"/><path class="cls-1" d="M288.69,101.33v7.86h3.75V115h-3.75v7.32a4.6,4.6,0,0,0,.21,1.74,1.22,1.22,0,0,0,1.18.66,6.44,6.44,0,0,0,2.11-.5l.51,5.46a19.29,19.29,0,0,1-4.73.65,7.3,7.3,0,0,1-3.76-.76,4.47,4.47,0,0,1-1.79-2.3,15.73,15.73,0,0,1-.58-5V115h-2.51v-5.8h2.51V105.4Z"/><path class="cls-1" d="M293.74,109.19h7.2l3.67,13.75L308,109.19h6.72l-7.06,22.07a14.19,14.19,0,0,1-2.47,5.11c-1.18,1.24-3,1.86-5.41,1.86a33.86,33.86,0,0,1-4.57-.46l-.53-5.53a9.25,9.25,0,0,0,3.28.55,2.9,2.9,0,0,0,2-.65,5,5,0,0,0,1.26-2.29Z"/><path class="cls-1" d="M328.63,129.85V101.33h4.89l5.83,20.19q.79,2.82,1.17,4.23c.28-1,.71-2.57,1.31-4.58l5.89-19.84h4.37v28.52H349V106l-7.15,23.87h-2.93l-7.12-24.28v24.28Z"/><path class="cls-1" d="M369.15,123.2l3.12.44a9.06,9.06,0,0,1-2.73,4.93,7.48,7.48,0,0,1-5.1,1.75,7.58,7.58,0,0,1-6.2-2.8c-1.52-1.86-2.29-4.47-2.29-7.83s.77-6.17,2.32-8.09a7.33,7.33,0,0,1,6-2.88,7.16,7.16,0,0,1,5.84,2.82q2.26,2.82,2.26,7.94c0,.21,0,.52,0,.93H359.07a8.76,8.76,0,0,0,1.66,5.22,4.67,4.67,0,0,0,3.73,1.81,4.21,4.21,0,0,0,2.83-1A7,7,0,0,0,369.15,123.2Zm-9.91-5.66h9.95a7.82,7.82,0,0,0-1.14-3.91,4.52,4.52,0,0,0-7.24-.41A6.87,6.87,0,0,0,359.24,117.54Z"/><path class="cls-1" d="M388.26,123.2l3.12.44a9.06,9.06,0,0,1-2.73,4.93,8.28,8.28,0,0,1-11.3-1q-2.3-2.79-2.29-7.83,0-5.2,2.31-8.09a7.37,7.37,0,0,1,6-2.88,7.16,7.16,0,0,1,5.84,2.82q2.26,2.82,2.26,7.94c0,.21,0,.52,0,.93H378.18a8.69,8.69,0,0,0,1.66,5.22,4.64,4.64,0,0,0,3.72,1.81,4.24,4.24,0,0,0,2.84-1A7,7,0,0,0,388.26,123.2Zm-9.91-5.66h9.94a7.63,7.63,0,0,0-1.14-3.91,4.41,4.41,0,0,0-3.74-2,4.47,4.47,0,0,0-3.5,1.62A6.92,6.92,0,0,0,378.35,117.54Z"/><path class="cls-1" d="M401.76,126.72l.44,3.09a9.59,9.59,0,0,1-2.28.31,4.58,4.58,0,0,1-2.55-.6,3.21,3.21,0,0,1-1.28-1.59,14.6,14.6,0,0,1-.37-4.13V111.91h-2.21v-2.72h2.21v-5.12l3-2.1v7.22h3v2.72h-3V124a6.92,6.92,0,0,0,.16,1.93,1.36,1.36,0,0,0,.52.68,1.76,1.76,0,0,0,1,.25A8.49,8.49,0,0,0,401.76,126.72Z"/><path class="cls-1" d="M403.51,123.68l3-.54a5.17,5.17,0,0,0,1.4,3.19,4.45,4.45,0,0,0,3.22,1.11,4.28,4.28,0,0,0,3.08-1,3.15,3.15,0,0,0,1-2.31,2.25,2.25,0,0,0-.89-1.87,11.94,11.94,0,0,0-3.09-1.18,24.85,24.85,0,0,1-4.6-1.69,4.72,4.72,0,0,1-1.95-2,6.19,6.19,0,0,1-.11-5.33,5.39,5.39,0,0,1,1.48-2,5.94,5.94,0,0,1,1.92-1,7.93,7.93,0,0,1,2.61-.42,9.15,9.15,0,0,1,3.68.7,5.07,5.07,0,0,1,2.34,1.9,8.19,8.19,0,0,1,1,3.2l-2.95.47a3.56,3.56,0,0,0-3.89-3.39,4.42,4.42,0,0,0-3,.8,2.44,2.44,0,0,0-.89,1.87,2.09,2.09,0,0,0,.37,1.22,2.66,2.66,0,0,0,1.16.94c.3.13,1.19.42,2.66.89a31.58,31.58,0,0,1,4.47,1.63,4.69,4.69,0,0,1,2,1.83,5.79,5.79,0,0,1,.72,3,6.53,6.53,0,0,1-.88,3.3,5.93,5.93,0,0,1-2.54,2.39,8.22,8.22,0,0,1-3.76.85,7.53,7.53,0,0,1-5.29-1.68A8.15,8.15,0,0,1,403.51,123.68Z"/><path class="cls-1" d="M450.46,126.8a19.43,19.43,0,0,0,4.18,2.64l-1,2.63a18.67,18.67,0,0,1-5.28-3.5,10.91,10.91,0,0,1-6,1.77,10.49,10.49,0,0,1-6.06-1.87,12,12,0,0,1-4.18-5.25,19,19,0,0,1-1.47-7.63,19.44,19.44,0,0,1,1.47-7.68,11.62,11.62,0,0,1,4.21-5.28,10.81,10.81,0,0,1,6.09-1.81,10.61,10.61,0,0,1,6.14,1.88,11.67,11.67,0,0,1,4.17,5.25,19.24,19.24,0,0,1,1.44,7.62,20.06,20.06,0,0,1-.93,6.33A13.54,13.54,0,0,1,450.46,126.8ZM443.3,122a11.58,11.58,0,0,1,4.64,2.72q2.87-3,2.87-9.12a16.67,16.67,0,0,0-1-6,8.93,8.93,0,0,0-3-4,7.3,7.3,0,0,0-4.39-1.43,7.54,7.54,0,0,0-6,2.89c-1.6,1.93-2.4,4.8-2.4,8.63s.79,6.56,2.38,8.54a7.6,7.6,0,0,0,9.35,2.22,9.93,9.93,0,0,0-3.22-1.64Z"/><path class="cls-1" d="M469.83,129.85v-3a6.33,6.33,0,0,1-5.65,3.51,6.43,6.43,0,0,1-2.94-.7,5,5,0,0,1-2-1.76,7.14,7.14,0,0,1-.94-2.6,21.14,21.14,0,0,1-.18-3.27v-12.8h3v11.46a24.05,24.05,0,0,0,.18,3.69,3.73,3.73,0,0,0,1.21,2.17,3.38,3.38,0,0,0,2.28.79,4.43,4.43,0,0,0,2.55-.81A4.29,4.29,0,0,0,469,124.3a12.73,12.73,0,0,0,.49-4V109.19h3v20.66Z"/><path class="cls-1" d="M488.89,127.3a11.4,11.4,0,0,1-3.23,2.34,8.23,8.23,0,0,1-3.33.68,5.6,5.6,0,0,1-6.09-5.92,6.35,6.35,0,0,1,.6-2.77,5.29,5.29,0,0,1,1.56-2,6.75,6.75,0,0,1,2.17-1.15,19.22,19.22,0,0,1,2.68-.53,24.48,24.48,0,0,0,5.39-1.2c0-.48,0-.79,0-.92a4.25,4.25,0,0,0-.85-3,4.6,4.6,0,0,0-3.44-1.19,4.78,4.78,0,0,0-3.15.87,5.58,5.58,0,0,0-1.5,3.06l-2.95-.47a9.24,9.24,0,0,1,1.33-3.55,5.86,5.86,0,0,1,2.66-2.08,10.57,10.57,0,0,1,4.05-.73,9.22,9.22,0,0,1,3.7.63,4.87,4.87,0,0,1,2.1,1.56,5.91,5.91,0,0,1,.94,2.38,23.08,23.08,0,0,1,.15,3.23v4.67a57.33,57.33,0,0,0,.19,6.18,8.71,8.71,0,0,0,.77,2.48h-3.16A8.53,8.53,0,0,1,488.89,127.3Zm-.25-7.82a19.54,19.54,0,0,1-4.93,1.32,10.23,10.23,0,0,0-2.64.7,2.79,2.79,0,0,0-1.19,1.14,3.37,3.37,0,0,0-.42,1.67,3.2,3.2,0,0,0,.92,2.33,3.57,3.57,0,0,0,2.67.93,5.54,5.54,0,0,0,3.1-.88,5.16,5.16,0,0,0,2-2.42,9.56,9.56,0,0,0,.49-3.51Z"/><path class="cls-1" d="M496.3,129.85V101.33h3v28.52Z"/><path class="cls-1" d="M504,105.36v-4h3v4Zm0,24.49V109.19h3v20.66Z"/><path class="cls-1" d="M518.23,126.72l.43,3.09a9.59,9.59,0,0,1-2.28.31,4.62,4.62,0,0,1-2.55-.6,3.19,3.19,0,0,1-1.27-1.59,14.23,14.23,0,0,1-.37-4.13V111.91H510v-2.72h2.22v-5.12l3-2.1v7.22h3v2.72h-3V124a6.92,6.92,0,0,0,.16,1.93,1.42,1.42,0,0,0,.52.68,1.76,1.76,0,0,0,1,.25A8.49,8.49,0,0,0,518.23,126.72Z"/><path class="cls-1" d="M521,137.81l-.33-3.29a5.76,5.76,0,0,0,1.73.31,2.93,2.93,0,0,0,1.61-.39,3,3,0,0,0,1-1.09,19.64,19.64,0,0,0,.92-2.61c.06-.19.14-.48.27-.85l-6.76-20.7h3.25l3.71,12q.72,2.28,1.29,4.79c.35-1.61.76-3.18,1.24-4.71l3.81-12h3l-6.78,21a44.67,44.67,0,0,1-1.69,4.69,6.77,6.77,0,0,1-1.85,2.54,4,4,0,0,1-2.48.8A5.45,5.45,0,0,1,521,137.81Z"/><path class="cls-1" d="M536.66,129.85v-4h3.44v4Z"/></g></g></svg>