<?xml version="1.0" encoding="utf-8"?>
<!-- Generator: Adobe Illustrator 24.0.1, SVG Export Plug-In . SVG Version: 6.00 Build 0)  -->
<svg version="1.1" id="Layer_1" xmlns="http://www.w3.org/2000/svg" xmlns:xlink="http://www.w3.org/1999/xlink" x="0px" y="0px"
	 viewBox="0 0 64 48" style="enable-background:new 0 0 64 48;" xml:space="preserve">
<style type="text/css">
	.st0{clip-path:url(#SVGID_2_);}
	.st1{fill:#2C82C9;}
</style>
<g>
	<defs>
		<rect id="SVGID_1_" y="0" width="64" height="48"/>
	</defs>
	<clipPath id="SVGID_2_">
		<use xlink:href="#SVGID_1_"  style="overflow:visible;"/>
	</clipPath>
	<g class="st0">
		<path class="st1" d="M14.5,19.2c-0.7,0-1.4,0.1-2.1,0.2c0.2-0.7,0.4-1.5,0.8-2.2c0.4-1,0.9-1.8,1.5-2.7c0.5-0.9,1.3-1.6,1.9-2.4
			c0.6-0.8,1.5-1.3,2.2-1.9c0.7-0.7,1.6-1,2.3-1.5c0.7-0.4,1.4-0.9,2.1-1.1L25,6.9l1.5-0.6L24.9,0L23,0.5c-0.6,0.2-1.4,0.3-2.2,0.5
			C20,1.2,19,1.6,18,2c-1,0.5-2.2,0.8-3.3,1.5c-1.1,0.7-2.4,1.3-3.5,2.2c-1.1,1-2.4,1.8-3.3,3C6.9,9.9,5.8,11.1,5,12.5
			c-0.9,1.3-1.6,2.7-2.2,4.2c-0.6,1.4-1.1,2.9-1.5,4.3c-0.8,2.8-1.1,5.5-1.2,7.8c-0.1,2.3,0,4.2,0.1,5.6c0,0.7,0.1,1.3,0.2,1.7
			l0.1,0.5l0.1,0c0.6,2.7,1.9,5.1,3.8,7.1c1.9,2,4.3,3.3,6.9,4c2.6,0.6,5.4,0.5,8-0.4c2.6-0.9,4.8-2.5,6.5-4.6
			c1.7-2.1,2.8-4.7,3.1-7.4c0.3-2.7-0.1-5.5-1.3-7.9c-1.2-2.5-3-4.5-5.3-6C19.9,19.9,17.3,19.2,14.5,19.2z M49.6,19.2
			c-0.7,0-1.4,0.1-2.1,0.2c0.2-0.7,0.4-1.5,0.8-2.2c0.4-1,0.9-1.8,1.5-2.7c0.5-0.9,1.3-1.6,1.9-2.4c0.6-0.8,1.5-1.3,2.2-1.9
			c0.7-0.7,1.6-1,2.3-1.5c0.7-0.4,1.4-0.9,2.1-1.1l1.7-0.7l1.5-0.6L60,0l-1.9,0.5c-0.6,0.2-1.4,0.3-2.2,0.5c-0.9,0.2-1.8,0.6-2.8,1
			c-1,0.5-2.2,0.8-3.3,1.5c-1.1,0.7-2.4,1.3-3.5,2.2c-1.1,1-2.4,1.8-3.3,3c-1.1,1.1-2.1,2.4-2.9,3.7c-0.9,1.3-1.6,2.7-2.2,4.2
			c-0.6,1.4-1.1,2.9-1.5,4.3c-0.8,2.8-1.1,5.5-1.2,7.8c-0.1,2.3,0,4.2,0.1,5.6c0,0.7,0.1,1.3,0.2,1.7l0.1,0.5l0.1,0
			c0.6,2.7,1.9,5.1,3.8,7.1s4.3,3.3,6.9,4c2.6,0.6,5.4,0.5,8-0.4c2.6-0.9,4.8-2.5,6.5-4.6c1.7-2.1,2.8-4.7,3.1-7.4
			c0.3-2.7-0.1-5.5-1.3-7.9c-1.2-2.5-3-4.5-5.3-6C55,19.9,52.3,19.2,49.6,19.2z"/>
	</g>
</g>
</svg>
