<?xml version="1.0" encoding="utf-8"?>
<!-- Generator: Adobe Illustrator 24.0.1, SVG Export Plug-In . SVG Version: 6.00 Build 0)  -->
<svg version="1.1" id="Layer_1" xmlns="http://www.w3.org/2000/svg" xmlns:xlink="http://www.w3.org/1999/xlink" x="0px" y="0px"
	 viewBox="0 0 125 125" style="enable-background:new 0 0 125 125;" xml:space="preserve">
<style type="text/css">
	.st0{fill:#2C82C9;}
	.st1{fill:#1F1F1F;}
</style>
<circle class="st0" cx="62.5" cy="62.5" r="62.5"/>
<path class="st1" d="M66.5,24.9l6.3-12l-1.6-0.2L66,22.9l-0.1,0l-2.3-11.2L62,11.5l3,13.2L66.5,24.9z"/>
<path class="st1" d="M73.5,26.6l4-12L76,14l-4,12L73.5,26.6z"/>
<path class="st1" d="M83.3,29.7l-5.5-2.9l2-3.8l5.3,2.8l0.7-1.2l-5.3-2.8l1.9-3.6L88,21l0.7-1.3L81.7,16l-6,11.2l6.9,3.7L83.3,29.7z
	"/>
<path class="st1" d="M95.3,28.6L95.3,28.6l-5,9.2l1.1,1.1l11.4-6.5l-1.2-1.2l-9.1,5.5l0,0l5.3-9.3l-1.1-1.1l-9.3,5.3l0,0l5.5-9.1
	l-1.2-1.2L85,32.6l1.1,1.1L95.3,28.6z"/>
</svg>
